<svg xmlns="http://www.w3.org/2000/svg" width="24" height="24" viewBox="0 0 32 32">
<path fill="none" stroke="white" stroke-width="2" stroke-linecap="round" stroke-linejoin="round" d="M18.7,19.8C16.1,19.7,14,22,14,24.6l0,1c0,1.6-0.9,2.9-2.3,3.4l0,0H14l4.4,0c2.6,0,4.8-2.1,4.8-4.7C23.1,21.8,21.1,19.9,18.7,19.8z"/>
<line x1="29" y1="11.9" x2="19.9" y2="20" stroke="white" stroke-width="2" stroke-linecap="round"/>
<line x1="13" y1="29" x2="11.5" y2="29" stroke="white" stroke-width="2" stroke-linecap="round"/>
<path fill="none" stroke="white" stroke-width="2" stroke-linecap="round" stroke-dasharray="3.1,3.1" d="M8.4,28.6C5.3,27.5,3,24.5,3,21V11c0-3.9,3.1-7,7-7s7,3.1,7,7v6.1"/>
<line x1="23.1" y1="23.8" x2="29" y2="17.5" stroke="white" stroke-width="2" stroke-linecap="round"/>
</svg>